# File created by Blade
# Date/Time:  Wed Jan 21 17:41:05 2015
#---------------------------------------------------------
:version 1.10
:name HOM
:units
  mass 1.0
  length 1.000000
  angle deg
:documentation
     Acclaim Skeleton File
:root
   axis xyz
   order TX TY TZ RX RY RZ
   position 0.000000 0.000000 0.000000
   orientation 0 0 0
:bonedata
   begin
      id 1
      name Spine_dum
      direction 0.000000 1.000000 0.000000
      length 7.067664
      axis 0.0 0.0 0.0 xyz
   end
   begin
      id 2
      name LeftUpLeg_dum
      direction 1.000000 0.000000 0.000000
      length 4.013002
      axis 0.0 0.0 0.0 xyz
   end
   begin
      id 3
      name RightUpLeg_dum
      direction -1.000000 0.000000 0.000000
      length 4.013002
      axis 0.0 0.0 0.0 xyz
   end
   begin
      id 4
      name Spine
      direction 0.000000 1.000000 0.000000
      length 0.000000
      axis 0.0 0.0 0.0 xyz
      dof rx ry rz
   end
   begin
      id 5
      name Spine_dum1
      direction 0.000000 1.000000 0.000000
      length 15.039886
      axis 0.0 0.0 0.0 xyz
   end
   begin
      id 6
      name Spine_dum2
      direction 0.000000 1.000000 0.000000
      length 10.530368
      axis 0.0 0.0 0.0 xyz
   end
   begin
      id 7
      name Spine_dum3
      direction 0.000000 1.000000 0.000000
      length 10.530368
      axis 0.0 0.0 0.0 xyz
   end
   begin
      id 8
      name Head
      direction 0.000000 1.000000 0.000000
      length 4.527550
      axis 0.0 0.0 0.0 xyz
      dof rx ry rz
   end
   begin
      id 9
      name LeftShoulder
      direction 1.000000 0.000000 0.000000
      length 7.028855
      axis 0.0 0.0 -90.0 xyz
      dof rx ry rz
   end
   begin
      id 10
      name LeftArm
      direction 1.000000 0.000000 0.000000
      length 10.797705
      axis 0.0 0.0 -90.0 xyz
      dof rx ry rz
   end
   begin
      id 11
      name LeftForeArm
      direction 1.000000 0.000000 0.000000
      length 7.907442
      axis 0.0 0.0 -90.0 xyz
      dof ry rz rx
   end
   begin
      id 12
      name LeftHand
      direction 0.000000 0.000000 0.000000
      length 0.000000
      axis 0.0 0.0 -90.0 xyz
      dof rx ry rz
   end
   begin
      id 13
      name LeftHand_dum1
      direction 0.000000 0.000000 0.000000
      length 0.000000
      axis 0.0 0.0 -90.0 xyz
   end
   begin
      id 14
      name LeftHand_dum2
      direction 1.000000 0.000000 0.000000
      length 3.937000
      axis 0.0 0.0 -90.0 xyz
   end
   begin
      id 15
      name LeftHandThumb1
      direction 0.000000 0.000000 1.000000
      length 3.937000
      axis 0.0 0.0 -90.0 xyz
      dof rx rz ry
   end
   begin
      id 16
      name RightShoulder
      direction -1.000000 0.000000 0.000000
      length 7.028855
      axis 0.0 0.0 90.0 xyz
      dof rx ry rz
   end
   begin
      id 17
      name RightArm
      direction -1.000000 0.000000 0.000000
      length 10.797705
      axis 0.0 0.0 90.0 xyz
      dof rx ry rz
   end
   begin
      id 18
      name RightForeArm
      direction -1.000000 0.000000 0.000000
      length 7.907442
      axis 0.0 0.0 90.0 xyz
      dof ry rz rx
   end
   begin
      id 19
      name RightHand
      direction 0.000000 0.000000 0.000000
      length 0.000000
      axis 0.0 0.0 90.0 xyz
      dof rx ry rz
   end
   begin
      id 20
      name RightHand_dum1
      direction 0.000000 0.000000 0.000000
      length 0.000000
      axis 0.0 0.0 90.0 xyz
   end
   begin
      id 21
      name RightHand_dum2
      direction -1.000000 0.000000 0.000000
      length 3.937000
      axis 0.0 0.0 90.0 xyz
   end
   begin
      id 22
      name RightHandThumb1
      direction 0.000000 0.000000 1.000000
      length 3.937000
      axis 0.0 0.0 90.0 xyz
      dof rx rz ry
   end
   begin
      id 23
      name LeftUpLeg
      direction 0.000000 -1.000000 0.000000
      length 16.899758
      axis 0.0 0.0 0.0 xyz
      dof rx ry rz
   end
   begin
      id 24
      name LeftLeg
      direction 0.000000 -1.000000 0.000000
      length 17.389183
      axis 0.0 0.0 0.0 xyz
      dof rx ry rz
   end
   begin
      id 25
      name LeftFoot
      direction 0.000000 -0.258819 0.965926
      length 4.924528
      axis 15.0 0.0 0.0 xyz
      dof rx ry rz
   end
   begin
      id 26
      name LeftToeBase
      direction 0.000000 0.000000 1.000000
      length 2.952750
      axis 0.0 0.0 0.0 xyz
      dof rx ry rz
   end
   begin
      id 27
      name RightUpLeg
      direction 0.000000 -1.000000 0.000000
      length 16.899758
      axis 0.0 0.0 0.0 xyz
      dof rx ry rz
   end
   begin
      id 28
      name RightLeg
      direction 0.000000 -1.000000 0.000000
      length 17.389183
      axis 0.0 0.0 0.0 xyz
      dof rx ry rz
   end
   begin
      id 29
      name RightFoot
      direction 0.000000 -0.258819 0.965926
      length 4.924528
      axis 15.0 0.0 0.0 xyz
      dof rx ry rz
   end
   begin
      id 30
      name RightToeBase
      direction 0.000000 0.000000 1.000000
      length 2.952750
      axis 0.0 0.0 0.0 xyz
      dof rx ry rz
   end
:hierarchy
   begin
      root Spine_dum LeftUpLeg_dum RightUpLeg_dum
      Spine_dum Spine
      LeftUpLeg_dum LeftUpLeg
      RightUpLeg_dum RightUpLeg
      Spine Spine_dum1 Spine_dum2 Spine_dum3
      Spine_dum1 Head
      Spine_dum2 LeftShoulder
      Spine_dum3 RightShoulder
      LeftShoulder LeftArm
      LeftArm LeftForeArm
      LeftForeArm LeftHand
      LeftHand LeftHand_dum1 LeftHand_dum2
      LeftHand_dum1 LeftHandThumb1
      RightShoulder RightArm
      RightArm RightForeArm
      RightForeArm RightHand
      RightHand RightHand_dum1 RightHand_dum2
      RightHand_dum1 RightHandThumb1
      LeftUpLeg LeftLeg
      LeftLeg LeftFoot
      LeftFoot LeftToeBase
      RightUpLeg RightLeg
      RightLeg RightFoot
      RightFoot RightToeBase
   end

# File created by Blade
# Date/Time:  Wed Jan 21 17:41:14 2015
# Frame Rate: 120.000 fps
#------------------------------------------------------
:FULLY-SPECIFIED
:DEGREES
189
root 15.703984 29.511207 -23.183220 -177.392196 86.041073 -171.030784
Spine -3.469973 -0.345040 -1.314327
Head 8.840908 -4.068955 -0.255715
LeftShoulder -8.914846 -51.502090 32.735801
LeftArm 62.406696 -21.271850 -6.935653
LeftForeArm 0.882087 -0.000000 7.575660
LeftHand -7.076334 0.000000 20.935118
LeftHandThumb1 -26.253704 0.000000 33.147579
RightShoulder -6.869324 15.138005 -25.919104
RightArm 74.864057 61.868502 28.451650
RightForeArm -42.756166 -0.000000 33.887853
RightHand -13.429817 -0.000000 -18.160938
RightHandThumb1 -24.326973 -0.000000 -32.862282
LeftUpLeg -22.191082 2.123546 -0.453370
LeftLeg 67.570033 -0.000000 -0.000000
LeftFoot -57.502607 24.923578 -18.657280
LeftToeBase 25.815618 -0.000000 -0.000000
RightUpLeg -21.945419 0.012186 3.464019
RightLeg 68.015785 -0.000000 -0.000000
RightFoot -59.969228 -27.743237 27.008262
RightToeBase 24.401317 -0.000000 -0.000000
190
root 15.681103 29.534810 -23.182677 -176.841165 86.100462 -170.567027
Spine -3.520635 -0.329704 -1.292768
Head 8.876699 -4.052545 -0.283480
LeftShoulder -9.116058 -51.401467 32.880594
LeftArm 62.501052 -21.297565 -7.101774
LeftForeArm 0.950614 -0.000000 7.449470
LeftHand -6.988498 -0.000000 20.918799
LeftHandThumb1 -26.253704 0.000000 33.147579
RightShoulder -6.827533 15.197069 -25.932141
RightArm 74.748915 61.814572 28.391549
RightForeArm -42.731845 -0.000000 33.833937
RightHand -13.417116 -0.000000 -18.159520
RightHandThumb1 -24.326973 -0.000000 -32.862282
LeftUpLeg -22.258472 2.191845 -0.429804
LeftLeg 67.441209 -0.000000 -0.000000
LeftFoot -57.414636 24.968542 -18.599490
LeftToeBase 25.868680 -0.000000 -0.000000
RightUpLeg -22.021332 0.048137 3.479651
RightLeg 67.878312 -0.000000 -0.000000
RightFoot -59.838599 -27.717544 26.952823
RightToeBase 24.341872 -0.000000 -0.000000
191
root 15.656638 29.559750 -23.182518 -176.357774 86.141822 -170.158176
Spine -3.540942 -0.272234 -1.275688
Head 8.877573 -4.059885 -0.327017
LeftShoulder -9.172802 -51.389479 32.899347
LeftArm 62.518655 -21.244516 -7.097189
LeftForeArm 0.990411 0.000000 7.359429
LeftHand -7.071109 -0.000000 20.846557
LeftHandThumb1 -26.253704 0.000000 33.147579
RightShoulder -6.850571 15.250610 -25.942800
RightArm 74.609007 61.747794 28.268588
RightForeArm -42.705923 -0.000000 33.737538
RightHand -13.389678 -0.000000 -18.213767
RightHandThumb1 -24.326973 -0.000000 -32.862282
LeftUpLeg -22.310986 2.241829 -0.412354
LeftLeg 67.297388 -0.000000 -0.000000
LeftFoot -57.324868 25.024474 -18.539592
LeftToeBase 25.865128 -0.000000 -0.000000
RightUpLeg -22.085133 0.057472 3.492224
RightLeg 67.726808 -0.000000 -0.000000
RightFoot -59.729036 -27.749160 26.892329
RightToeBase 24.358225 -0.000000 -0.000000
192
root 15.632804 29.586351 -23.178950 -175.553419 86.163152 -169.455707
Spine -3.610379 -0.253620 -1.244955
Head 8.942198 -4.037191 -0.349805
LeftShoulder -9.181187 -51.348747 32.877030
LeftArm 62.479847 -21.168070 -6.961106
LeftForeArm 0.941727 -0.000000 7.283247
LeftHand -7.090445 0.000000 20.775016
LeftHandThumb1 -26.253704 0.000000 33.147579
RightShoulder -6.824849 15.182123 -25.902622
RightArm 74.451592 61.784764 28.065494
RightForeArm -42.642356 -0.000000 33.608565
RightHand -13.426117 -0.000000 -18.232283
RightHandThumb1 -24.326973 -0.000000 -32.862282
LeftUpLeg -22.394738 2.272516 -0.367906
LeftLeg 67.161003 -0.000000 -0.000000
LeftFoot -57.232010 25.068329 -18.493604
LeftToeBase 25.865035 -0.000000 -0.000000
RightUpLeg -22.166789 0.045826 3.528619
RightLeg 67.565637 -0.000000 -0.000000
RightFoot -59.590957 -27.759563 26.811478
RightToeBase 24.398294 -0.000000 -0.000000
